<svg width="108" height="26" viewBox="0 0 108 26" fill="none" xmlns="http://www.w3.org/2000/svg">
<path fill-rule="evenodd" clip-rule="evenodd" d="M0.000199363 18.9713L3.87749 16.0011C5.93673 18.6892 8.12346 19.9279 10.5601 19.9277C12.9832 19.9276 15.1097 18.7029 17.0763 16.0357L21.0074 18.9344C18.1719 22.7798 14.644 24.8116 10.5604 24.8119C6.49035 24.8122 2.92948 22.7952 0.000199363 18.9713Z" fill="white"/>
<path fill-rule="evenodd" clip-rule="evenodd" d="M10.09 6.45982L3.18909 12.407L0.000584388 8.70721L10.1033 0.000664583L20.1286 8.71264L16.9249 12.3993L10.09 6.45982Z" fill="white"/>
<path d="M47.9074 5.04319L44 5.04346L44.0011 21.3241L47.9085 21.3239L47.9074 5.04319Z" fill="white"/>
<path fill-rule="evenodd" clip-rule="evenodd" d="M36.1056 21.3159C33.8022 21.3161 31.8827 20.5698 30.3257 19.0769C28.7687 17.5628 28.0007 15.622 28.0006 13.2546C28.0004 10.8659 28.7894 8.9037 30.3462 7.36803C31.9244 5.81098 33.8438 5.04306 36.1259 5.04291C38.941 5.04272 41.4366 6.25822 42.8869 8.15631L40.3491 10.8225C39.1332 9.52153 37.811 8.86047 36.382 8.86056C35.1664 8.86065 34.164 9.26592 33.3323 10.0978C32.5219 10.9296 32.1167 11.9747 32.1168 13.233C32.1169 14.4487 32.5222 15.4724 33.3327 16.3041C34.1645 17.1145 35.167 17.5197 36.3613 17.5196C37.9182 17.5195 39.2831 16.8369 40.4133 15.4932L43.0583 18.031C42.3333 18.9908 41.3521 19.78 40.1364 20.3986C38.921 21.0172 37.5772 21.3158 36.1056 21.3159Z" fill="white"/>
<path fill-rule="evenodd" clip-rule="evenodd" d="M53.233 6.15965C53.2331 7.32858 52.2859 8.27623 51.1169 8.27631C49.9479 8.27638 49.0002 7.32887 49.0001 6.15993C49.0001 4.99104 49.9476 4.04339 51.1166 4.04331C52.2856 4.04324 53.2329 4.99075 53.233 6.15965ZM53.0704 9.25298L49.1631 9.25324L49.1639 21.1382L53.0712 21.1379L53.0704 9.25298Z" fill="white"/>
<path fill-rule="evenodd" clip-rule="evenodd" d="M60.25 21.3704C58.3946 21.3706 56.9015 20.7948 55.7286 19.6432C54.5767 18.4916 54.0005 17.02 54.0004 15.2072C54.0003 13.3943 54.5763 11.9226 55.749 10.7709C56.9222 9.61911 58.4363 9.04316 60.3131 9.04303C62.766 9.04287 64.9199 10.2371 65.9225 12.4764L62.9154 14.0549C62.3182 13.0525 61.4866 12.5407 60.3988 12.5408C59.6097 12.5408 58.9697 12.7968 58.458 13.3087C57.9674 13.8206 57.7116 14.4604 57.7116 15.2069C57.7117 16.7638 58.8421 17.9154 60.3566 17.9153C61.444 17.9153 62.4464 17.318 62.873 16.4009L65.8803 18.1922C64.8566 20.1545 62.7454 21.3703 60.25 21.3704Z" fill="white"/>
<path fill-rule="evenodd" clip-rule="evenodd" d="M70.9073 5.04319L67 5.04346L67.0011 21.3241L70.9084 21.3238L70.9081 17.1792L71.3658 16.7522L74.9379 21.3236L79.4833 21.3233L73.9951 14.3L79.2079 9.43838L74.4334 9.4387L70.9078 12.727L70.9073 5.04319Z" fill="white"/>
<path fill-rule="evenodd" clip-rule="evenodd" d="M81.0007 15.172L81 5.04346L85.0705 5.04318L85.0711 14.9449C85.0713 16.7151 86.1028 17.5681 87.5947 17.568C89.0648 17.5679 90.1181 16.6721 90.1179 14.9446L90.1173 5.04285L94.1874 5.04257L94.1881 15.1711C94.1884 19.8205 90.9243 21.5696 87.595 21.5698C84.2871 21.5701 81.001 19.8214 81.0007 15.172Z" fill="white"/>
<path fill-rule="evenodd" clip-rule="evenodd" d="M102.164 21.4163C105.311 21.4161 107.862 18.6461 107.862 15.2292C107.862 11.8124 105.31 9.04276 102.163 9.04298C100.881 9.04306 99.6971 9.50335 98.7446 10.28L98.7445 9.20603L95 9.20628L95.0011 25.9754L98.7456 25.9751L98.7453 20.1797C99.6979 20.9562 100.882 21.4164 102.164 21.4163ZM98.7449 15.2362L98.7449 15.2235C98.7483 13.6978 99.9494 12.4621 101.431 12.462C102.915 12.4619 104.118 13.7009 104.118 15.2295C104.118 16.758 102.915 17.9973 101.431 17.9974C99.9497 17.9975 98.7485 16.7619 98.7449 15.2362Z" fill="white"/>
</svg>
