<svg width="15" height="15" viewBox="0 0 15 15" fill="none" xmlns="http://www.w3.org/2000/svg">
<path d="M0.977735 0L5.12591 4.14818V1.6691H6.50864V6.50864H1.6691V5.12591H4.14818L0 0.977735L0.977735 0Z" fill="#7C5900"/>
<path d="M14.4 0.977735L10.2518 5.12591L12.7309 5.12591V6.50864L7.89136 6.50864V1.6691H9.27409V4.14818L13.4223 0L14.4 0.977735Z" fill="#7C5900"/>
<path d="M1.6691 7.89136H6.50864V12.7309H5.12591V10.2518L0.977735 14.4L0 13.4223L4.14818 9.27409H1.6691V7.89136Z" fill="#7C5900"/>
<path d="M7.89136 7.89136H12.7309V9.27409H10.2518L14.4 13.4223L13.4223 14.4L9.27409 10.2518V12.7309H7.89136V7.89136Z" fill="#7C5900"/>
</svg>
